<svg width="46" height="46" viewBox="0 0 46 46" fill="none" xmlns="http://www.w3.org/2000/svg">
<path d="M44.4039 6.30313C43.9553 5.51589 43.3404 4.83595 42.602 4.3107C41.8637 3.78545 41.0197 3.42753 40.1289 3.26188L39.65 1.283C39.6297 1.19903 39.593 1.11989 39.542 1.05012C39.4911 0.980361 39.4268 0.921349 39.353 0.876474C39.2792 0.831598 39.1972 0.801742 39.1118 0.78862C39.0264 0.775497 38.9393 0.779366 38.8554 0.800004L35.1804 1.68988C35.0113 1.73093 34.8653 1.83744 34.7747 1.98602C34.6841 2.1346 34.6561 2.31308 34.697 2.48225L35.0473 3.92863L10.6625 9.83338C10.4938 9.87476 10.3484 9.9813 10.2581 10.1297C10.1678 10.278 10.1399 10.4561 10.1806 10.625L10.4158 11.5959L5.98775 12.6684C5.81862 12.7094 5.6727 12.8159 5.58207 12.9645C5.49143 13.1131 5.46348 13.2916 5.50438 13.4608L5.85125 14.8933L1.28525 15.9984C1.20148 16.0187 1.12252 16.0552 1.05289 16.106C0.983261 16.1568 0.924319 16.2209 0.879432 16.2944C0.834545 16.368 0.804593 16.4497 0.791285 16.5349C0.777978 16.62 0.781577 16.707 0.801875 16.7908L1.64563 20.2745C1.68025 20.4175 1.76192 20.5448 1.87752 20.6358C1.99313 20.7269 2.13597 20.7765 2.28313 20.7766C2.3353 20.7764 2.38728 20.7701 2.438 20.7579L7.00363 19.6528L7.34938 21.0807C7.384 21.2238 7.46567 21.351 7.58127 21.4421C7.69688 21.5331 7.83972 21.5827 7.98688 21.5829C8.03907 21.5829 8.09107 21.5766 8.14175 21.5641L12.5701 20.4924L12.8056 21.4636C12.8404 21.6066 12.9221 21.7337 13.0377 21.8246C13.1533 21.9156 13.296 21.9652 13.4431 21.9654C13.4953 21.9654 13.5473 21.9591 13.598 21.9466L20.1568 20.3574C20.2356 20.7338 20.3885 21.0907 20.6068 21.4074L10.1589 42.6522C10.0258 42.9237 9.96394 43.2246 9.97917 43.5265C9.9944 43.8285 10.0862 44.1216 10.2459 44.3783C10.4057 44.635 10.6281 44.8468 10.8923 44.9938C11.1564 45.1409 11.4537 45.2183 11.756 45.2187C12.0886 45.2172 12.4142 45.1232 12.6964 44.9472C12.9786 44.7711 13.2063 44.5201 13.3539 44.222L21.221 28.2219V43.4375C21.221 43.9099 21.4087 44.363 21.7427 44.697C22.0768 45.0311 22.5298 45.2187 23.0023 45.2187C23.4747 45.2187 23.9277 45.0311 24.2618 44.697C24.5958 44.363 24.7835 43.9099 24.7835 43.4375V28.2219L32.6506 44.222C32.7984 44.5203 33.0262 44.7715 33.3087 44.9476C33.5912 45.1236 33.9172 45.2175 34.25 45.2187C34.5219 45.2198 34.7902 45.1572 35.0334 45.0357C35.2435 44.9329 35.4312 44.7897 35.5859 44.6143C35.7405 44.4388 35.859 44.2346 35.9347 44.0132C36.0103 43.7919 36.0415 43.5578 36.0266 43.3244C36.0116 43.091 35.9508 42.8629 35.8475 42.653L25.4 21.4059C25.6404 21.0576 25.801 20.6606 25.8704 20.2432C25.9397 19.8258 25.9161 19.3981 25.8013 18.9909L37.9816 16.0374L38.3326 17.4856C38.3737 17.6548 38.4802 17.8007 38.6288 17.8913C38.7774 17.9819 38.9558 18.0099 39.125 17.969L42.8 17.0788C42.8838 17.0585 42.9628 17.022 43.0325 16.9712C43.1021 16.9204 43.1611 16.8564 43.206 16.7828C43.2509 16.7092 43.2808 16.6275 43.2941 16.5423C43.3074 16.4571 43.3037 16.3701 43.2834 16.2864L42.8045 14.3086C43.9879 13.3886 44.8007 12.0735 45.0944 10.6036C45.3881 9.1337 45.143 7.60721 44.4039 6.30313ZM2.76688 19.3276L2.23213 17.1196L6.15988 16.169L6.69463 18.377L2.76688 19.3276ZM8.47063 20.1343L8.12863 18.7216C8.12863 18.7164 8.12863 18.7111 8.12638 18.7059C8.12413 18.7006 8.12263 18.6958 8.12113 18.6905L7.2845 15.2375C7.2845 15.2326 7.2845 15.2281 7.2845 15.2236C7.2845 15.2191 7.28113 15.215 7.28 15.2101L6.93613 13.7911L10.7266 12.8739L12.2641 19.2181L8.47063 20.1343ZM24.335 18.8967C24.5352 19.2014 24.6241 19.5657 24.587 19.9283C24.5498 20.2909 24.3888 20.6296 24.131 20.8873L24.1276 20.8914C23.9798 21.0394 23.8043 21.1568 23.611 21.2369C23.4178 21.317 23.2107 21.3583 23.0015 21.3583C22.7923 21.3583 22.5852 21.317 22.392 21.2369C22.1987 21.1568 22.0232 21.0394 21.8754 20.8914L21.872 20.8873C21.7144 20.7294 21.5916 20.5401 21.5118 20.3318C21.432 20.1235 21.3969 19.9007 21.4087 19.6779C21.4205 19.4551 21.479 19.2373 21.5804 19.0385C21.6818 18.8398 21.8238 18.6646 21.9972 18.5243C22.1707 18.384 22.3717 18.2816 22.5872 18.224C22.8027 18.1663 23.028 18.1546 23.2483 18.1896C23.4687 18.2246 23.6792 18.3055 23.8663 18.427C24.0533 18.5486 24.2128 18.7081 24.3343 18.8953L24.335 18.8967ZM12.1756 43.6434C12.1348 43.7263 12.0702 43.7953 11.9902 43.8416C11.9102 43.8879 11.8183 43.9094 11.726 43.9035C11.6337 43.8976 11.5453 43.8645 11.4718 43.8084C11.3983 43.7523 11.3431 43.6757 11.3131 43.5882C11.2932 43.5303 11.2849 43.4689 11.2889 43.4078C11.2929 43.3466 11.309 43.2869 11.3364 43.232L21.221 23.1275V25.2478L12.1756 43.6434ZM23.0023 43.9059C22.878 43.9058 22.7588 43.8564 22.6709 43.7685C22.583 43.6806 22.5336 43.5614 22.5335 43.4371V22.6306C22.8436 22.6856 23.1609 22.6856 23.471 22.6306V43.4375C23.4709 43.5618 23.4215 43.681 23.3336 43.7688C23.2457 43.8567 23.1265 43.9061 23.0023 43.9062V43.9059ZM34.6914 43.5879C34.6712 43.6469 34.6395 43.7013 34.598 43.7478C34.5565 43.7944 34.5062 43.8322 34.4499 43.859C34.3383 43.9094 34.2116 43.9151 34.096 43.8748C33.9804 43.8346 33.8846 43.7514 33.8285 43.6426L24.7835 25.2478V23.1275L34.6685 43.2331C34.6956 43.2877 34.7116 43.3472 34.7155 43.408C34.7194 43.4688 34.7112 43.5299 34.6914 43.5875V43.5879ZM23.0023 16.8594C22.3661 16.8605 21.7478 17.0701 21.2422 17.4562C20.7366 17.8423 20.3715 18.3835 20.2029 18.9969L13.925 20.5168L11.8453 11.9293V11.9263V11.9229L11.6109 10.955L35.357 5.204L37.6719 14.7616L25.1375 17.801C24.8664 17.5045 24.5365 17.2677 24.1689 17.1056C23.8013 16.9435 23.404 16.8596 23.0023 16.8594ZM39.4531 16.5388L36.4831 4.27625C36.4831 4.2695 36.4831 4.26275 36.4801 4.256C36.4771 4.24925 36.4753 4.24363 36.4738 4.23725L36.128 2.81225L38.528 2.231L41.8535 15.959L39.4531 16.5388ZM40.4769 4.70525C41.2831 4.95974 42.01 5.41809 42.5872 6.03593C43.1643 6.65376 43.5721 7.41015 43.7712 8.23185C43.9702 9.05355 43.9537 9.91273 43.7232 10.7262C43.4928 11.5396 43.0562 12.2798 42.4558 12.875L40.4769 4.70525Z" fill="#1F1F1F"/>
</svg>
